<svg xmlns="http://www.w3.org/2000/svg" viewBox="0 0 61.6 210">
  <defs>
    <style>
      .cls-1 {
        isolation: isolate;
      }

      .cls-2 {
        fill: #af7342;
      }

      .cls-3 {
        fill: #fab78d;
      }

      .cls-4 {
        fill: #f7b68d;
      }

      .cls-5 {
        fill: #d0d2d3;
        mix-blend-mode: multiply;
      }

      .cls-6 {
        fill: #008fbb;
      }

      .cls-7 {
        fill: #dd417c;
      }

      .cls-8 {
        fill: #f5a37a;
      }

      .cls-9 {
        fill: #475fa3;
      }
    </style>
  </defs>
  <title>Artboard 1</title>
  <g class="cls-1">
    <g id="Layer_1" data-name="Layer 1">
      <g>
        <path class="cls-2" d="M9.5,23.1c3.7,5,1.8,4.5,2.6,10.2s7,12.7,12.8,14.2,7.7,2,9.3,7.4,5.4,6,9.7,4.3c2.2-.9,4.2-2.5,6.5-2.8s4.6.3,6.8.3c5.4.1,5.5-5,2-8.3-2-1.8-3.9-2.6-4.8-5.2s-.5-4.3-1.5-6.3a9.8,9.8,0,0,0-5-4.8c-2.1-.9-3.8-1.6-4.7-3.9s.1-4.3-.6-6.3-2.9-2.8-3.7-4.7-.4-4.5-1.9-7-1.8-4-3.3-5.5c-4.9-5-15.3-2.7-20.8.1S5.7,18.1,9.5,23.1Z"/>
        <path class="cls-3" d="M40.4,48.4c-.7,9.8-1.4,20.9-1.2,30.1-1.1,0-6.5,1.9-8.4-2.6-1.3-17.5-.6-24-.6-24S29.6,42,35,42C35,42,41,44.6,40.4,48.4Z"/>
        <g>
          <path class="cls-4" d="M47,107.5l2,1.4c1.3,1.1.6,1.5-.2,1.1s.3.4.7,1.3,0,2.1-1.1,2.4-2.4.7-3.6-.2-1.3-3.3-.9-5.3Z"/>
          <path class="cls-4" d="M39.2,76.6l8.3,31.8-2.7,2.3L31.2,77.6s-1.9-5,2.8-7C34,70.6,37,70.1,39.2,76.6Z"/>
        </g>
        <g>
          <g>
            <path class="cls-4" d="M36.4,87.9c.8,2.4,1.3,4.3,1.7,5.9h-16V87.9"/>
            <polygon class="cls-4" points="33.8 184.1 32 198.2 29.1 200 26.7 184.1 33.8 184.1"/>
            <path class="cls-5" d="M26,141.8l-1.3-22.6-2.6-15.3,2.9.2a24.7,24.7,0,0,0,8.5-.9l-.6.5a30.9,30.9,0,0,0-4,4.8c-1.1,2.2-1.2,4.7-1.6,7.1Z"/>
          </g>
          <polygon class="cls-4" points="19.1 184.1 17.9 198.6 14.8 199.9 13.6 184.1 19.1 184.1"/>
          <g>
            <path class="cls-6" d="M22.1,87.9v17.9L25,151.1l2.2,46.2H33L36.6,150l2.8-32.6c.2-16.4.8-17.7-3-29.5l-1.8-6.5H22.1Z"/>
            <path class="cls-5" d="M24.4,141.8,23,119.4l-.9-15.5,2.9.2a24.7,24.7,0,0,0,8.5-.9l-.6.5a30.9,30.9,0,0,0-4,4.8c-1.1,2.2-1.2,4.7-1.6,7.1Z"/>
          </g>
          <path class="cls-6" d="M26,87.9c.1,5.4.1,35-2.5,61.9L19,197.3H13.3l-1.1-49s-3.7-30.5-4.8-36.5c0,0-4-8.1,2.8-23.9l2.3-6.5H26Z"/>
          <g>
            <path class="cls-4" d="M23.2,207.3s-3,2.2-4.7-.4L15,199.6l2.9-1,2.7,5.5Z"/>
            <path class="cls-7" d="M24.2,209.9a7.6,7.6,0,0,1-6.1-1.4l-2.6-5.6.2,5.7h-.5L14,201.4s-1.2-1.8.6-4.1c0,0-.2.8,1,3.1l3,5.5a3.2,3.2,0,0,0,3.4,1.7c1.6-.2-1-3-1-3l4.7,4.7S25.7,209.7,24.2,209.9Z"/>
          </g>
          <g>
            <path class="cls-4" d="M37.4,207.3s-3,2.2-4.7-.4l-3.6-7.3,2.9-1.4,2.8,5.9Z"/>
            <path class="cls-7" d="M38.4,209.9a7.6,7.6,0,0,1-6.1-1.4l-2.6-5.6v5.7h-.4l-1.2-7.1a3.6,3.6,0,0,1,.5-4.1s-.2.8,1.1,3.1l2.9,5.5a3.3,3.3,0,0,0,3.5,1.7c1.5-.2-1-3-1-3l4.6,4.7S39.8,209.7,38.4,209.9Z"/>
          </g>
        </g>
        <rect class="cls-4" x="14.8" y="43.3" width="18.5" height="14.96"/>
        <path class="cls-2" d="M35.1,6.2c.9,1.8,1.5,4.5.8,6.4-1.7,4.4-10.1,5.8-12.5,1.7s-1-7.8,1.3-10.4S33,2.2,35.1,6.2Z"/>
        <path class="cls-4" d="M20.3,44.2s.3,16.2-10.9,12.6c0,0-8.7-8.1.1-13.9Z"/>
        <rect class="cls-4" x="19.2" y="31.7" width="8.7" height="9.91"/>
        <path class="cls-8" d="M27.9,36.3V31.7H19.2v5.5C22.3,37.2,25.2,37.2,27.9,36.3Z"/>
        <path class="cls-4" d="M39.9,45.9a10.1,10.1,0,0,0-5.3-4L26.9,39H19.5l-7.8,2.9a10.5,10.5,0,0,0-5.3,4Z"/>
        <path class="cls-4" d="M16.4,29a5.2,5.2,0,0,0,1.4,1.9A15.2,15.2,0,0,0,28.1,35C37.9,30.3,34,11.2,34,11.2c-1.9-9.1-9.7-8.7-9.7-8.7-6-.1-11.3,2.9-11.9,9.2-.3,2.4.3,5,.5,7.3A18.6,18.6,0,0,0,14,24.2,43,43,0,0,0,16.4,29Z"/>
        <path class="cls-2" d="M32.7,3.3s-.2,13-11.8,13.9c0,0-6.2.6-5.1,6.6,0,0-.4-4.6-4.1-3.5,0,0-2.7-3.1-2.3-9.2,0,0-.6-6.9,9.1-9.9C18.5,1.2,27.4-2.6,32.7,3.3Z"/>
        <path class="cls-4" d="M15.2,21.8s-1.3-3-3.6-1.7c0,0-1.4.8-.3,3.1,0,0,1.5,3.1,3.9,1.8Z"/>
        <path class="cls-9" d="M35.9,81.2l-2.6-9.5,1.3-7A11,11,0,0,0,37.8,54c-4.8-8.8-5.9-13.1-5.9-13.1l-2.6-1c2.9,9.9-1.4,12.7-1.4,12.7C22.7,52,17.4,39.8,17.4,39.8l-1.5.5c1.9,6.1,1.5,10.1-1.4,14.3-1.1,1.6-3.3,2-5.1,2.2h0a79.6,79.6,0,0,1,3.8,14.8,21.1,21.1,0,0,1-1.7,9.5S21.6,84.1,35.9,81.2Z"/>
        <path class="cls-3" d="M14.4,51.7A247.4,247.4,0,0,0,7.7,77.6C6.6,77.4.9,78,.1,73.2,2.7,55.9,4.8,49.7,4.8,49.7s1.2-6.8,6.3-5.8C11.1,43.9,16.3,45.2,14.4,51.7Z"/>
        <g>
          <path class="cls-4" d="M10.5,117.8c1.9-.7,1.3-1.6.9-3.2s-.3-.9-.6-2.1a2.4,2.4,0,0,0,1.2,1.4.9.9,0,0,0,1.2-.6l-1.8-2.4a17.1,17.1,0,0,1-1.1-1.4,4,4,0,0,0-2-1.1,2,2,0,0,0-2.4,1.8,12.2,12.2,0,0,0,.4,3.2S7.4,117.6,10.5,117.8Z"/>
          <path class="cls-4" d="M8.1,75.8l1,32.8L6,110.2,0,75s-.6-5.3,4.4-6.3C4.4,68.7,7.5,69,8.1,75.8Z"/>
        </g>
      </g>
    </g>
  </g>
</svg>
